<mxfile host="app.diagrams.net" modified="2023-03-09T16:51:29.928Z" agent="5.0 (Windows NT 10.0; Win64; x64) AppleWebKit/537.36 (KHTML, like Gecko) Chrome/110.0.0.0 Safari/537.36" etag="uudUyjha6woWDn41uiRW" version="20.8.23" type="github">
  <diagram id="C5RBs43oDa-KdzZeNtuy" name="Page-1">
    <mxGraphModel dx="546" dy="768" grid="1" gridSize="10" guides="1" tooltips="1" connect="1" arrows="1" fold="1" page="1" pageScale="1" pageWidth="827" pageHeight="1169" math="0" shadow="0">
      <root>
        <mxCell id="WIyWlLk6GJQsqaUBKTNV-0" />
        <mxCell id="WIyWlLk6GJQsqaUBKTNV-1" parent="WIyWlLk6GJQsqaUBKTNV-0" />
        <mxCell id="1LRkpFXJiyS809dYIxMQ-0" value="Player" style="rounded=0;whiteSpace=wrap;html=1;" vertex="1" parent="WIyWlLk6GJQsqaUBKTNV-1">
          <mxGeometry x="280" y="260" width="100" height="50" as="geometry" />
        </mxCell>
        <mxCell id="1LRkpFXJiyS809dYIxMQ-1" value="has played" style="rhombus;whiteSpace=wrap;html=1;" vertex="1" parent="WIyWlLk6GJQsqaUBKTNV-1">
          <mxGeometry x="290" y="120" width="80" height="80" as="geometry" />
        </mxCell>
        <mxCell id="1LRkpFXJiyS809dYIxMQ-2" value="Season" style="rounded=0;whiteSpace=wrap;html=1;" vertex="1" parent="WIyWlLk6GJQsqaUBKTNV-1">
          <mxGeometry x="290" y="40" width="80" height="30" as="geometry" />
        </mxCell>
        <mxCell id="1LRkpFXJiyS809dYIxMQ-3" value="for" style="rhombus;whiteSpace=wrap;html=1;" vertex="1" parent="WIyWlLk6GJQsqaUBKTNV-1">
          <mxGeometry x="420" y="30" width="50" height="50" as="geometry" />
        </mxCell>
        <mxCell id="1LRkpFXJiyS809dYIxMQ-4" value="Team" style="rounded=0;whiteSpace=wrap;html=1;" vertex="1" parent="WIyWlLk6GJQsqaUBKTNV-1">
          <mxGeometry x="530" y="35" width="80" height="40" as="geometry" />
        </mxCell>
        <mxCell id="1LRkpFXJiyS809dYIxMQ-5" value="is" style="rhombus;whiteSpace=wrap;html=1;" vertex="1" parent="WIyWlLk6GJQsqaUBKTNV-1">
          <mxGeometry x="302.5" y="350" width="55" height="50" as="geometry" />
        </mxCell>
        <mxCell id="1LRkpFXJiyS809dYIxMQ-6" value="Goalie" style="rounded=0;whiteSpace=wrap;html=1;" vertex="1" parent="WIyWlLk6GJQsqaUBKTNV-1">
          <mxGeometry x="190" y="420" width="90" height="50" as="geometry" />
        </mxCell>
        <mxCell id="1LRkpFXJiyS809dYIxMQ-8" value="Skater" style="rounded=0;whiteSpace=wrap;html=1;" vertex="1" parent="WIyWlLk6GJQsqaUBKTNV-1">
          <mxGeometry x="380" y="420" width="90" height="50" as="geometry" />
        </mxCell>
        <mxCell id="1LRkpFXJiyS809dYIxMQ-14" value="Goaliestats" style="ellipse;whiteSpace=wrap;html=1;" vertex="1" parent="WIyWlLk6GJQsqaUBKTNV-1">
          <mxGeometry x="175" y="520" width="120" height="50" as="geometry" />
        </mxCell>
        <mxCell id="1LRkpFXJiyS809dYIxMQ-15" value="Skaterstats" style="ellipse;whiteSpace=wrap;html=1;" vertex="1" parent="WIyWlLk6GJQsqaUBKTNV-1">
          <mxGeometry x="365" y="520" width="120" height="50" as="geometry" />
        </mxCell>
        <mxCell id="1LRkpFXJiyS809dYIxMQ-16" value="Teamstats" style="ellipse;whiteSpace=wrap;html=1;" vertex="1" parent="WIyWlLk6GJQsqaUBKTNV-1">
          <mxGeometry x="510" y="110" width="120" height="50" as="geometry" />
        </mxCell>
      </root>
    </mxGraphModel>
  </diagram>
</mxfile>
